<?xml version="1.0" encoding="utf-8"?>
<!-- Generator: Adobe Illustrator 25.4.1, SVG Export Plug-In . SVG Version: 6.00 Build 0)  -->
<svg version="1.1" id="Layer_1" xmlns="http://www.w3.org/2000/svg" xmlns:xlink="http://www.w3.org/1999/xlink" x="0px" y="0px"
	 viewBox="0 0 30.76 30.76" style="enable-background:new 0 0 30.76 30.76;" xml:space="preserve">
<path d="M30.76,15.38c0,8.49-6.88,15.38-15.38,15.38S0,23.87,0,15.38S6.88,0,15.38,0S30.76,6.88,30.76,15.38z M15.38,2.51
	c-7.11,0-12.87,5.76-12.87,12.87s5.76,12.87,12.87,12.87s12.87-5.76,12.87-12.87S22.48,2.51,15.38,2.51z"/>
<polygon points="23.08,13.83 12.74,13.83 17.59,8.83 13.24,8.83 6.67,15.4 6.69,15.42 6.67,15.44 13.1,21.86 17.38,21.85 
	12.78,17.08 23.08,17.08 "/>
</svg>
