<svg id="Layer_1" data-name="Layer 1" xmlns="http://www.w3.org/2000/svg" xmlns:xlink="http://www.w3.org/1999/xlink" viewBox="0 0 15.48 23.25">
  
  <defs>
    <style type="text/css">
      .cls-1,.cls-2{fill-rule:evenodd;}
      .cls-1{fill:url(#linear-gradient);}
      .cls-2{fill:url(#linear-gradient-2);}
    </style>
    <linearGradient id="linear-gradient" x1="-972.1" y1="374.93" x2="-971.1" y2="374.93" gradientTransform="translate(15286.79 -5881.42) scale(15.73)" gradientUnits="userSpaceOnUse">
      <stop offset="0" stop-color="#787878"/><stop offset="0.51" stop-color="#5e5f5e"/>
      <stop offset="1" stop-color="#787878"/>
    </linearGradient>
    <linearGradient id="linear-gradient-2" x1="-972.48" y1="310.65" x2="-971.48" y2="310.65" gradientTransform="translate(15022.81 -3598.19) scale(15.45 11.59)" xlink:href="#linear-gradient"/>
  </defs>
  
  
  <path class="cls-1" d="M3,8.61a.36.36,0,0,1,.12-.29,1,1,0,0,1,.51-.19.79.79,0,0,1,.51.08.34.34,0,0,1,.13.29L5.34,20.71a.39.39,0,0,1-.09.3.71.71,0,0,1-.46.21.92.92,0,0,1-.54-.12.44.44,0,0,1-.18-.28L3,8.61m8.27-.09a.38.38,0,0,1,.17-.27,1,1,0,0,1,.54-.1.81.81,0,0,1,.49.17.35.35,0,0,1,.07.31L11.47,20.84a.35.35,0,0,1-.14.28.77.77,0,0,1-.49.13,1,1,0,0,1-.5-.22.46.46,0,0,1-.14-.3ZM7,8.48a.39.39,0,0,1,.15-.28,1.08,1.08,0,0,1,.53-.15.8.8,0,0,1,.5.14.33.33,0,0,1,.1.29V20.74a.39.39,0,0,1-.12.29.73.73,0,0,1-.48.17A.89.89,0,0,1,7.2,21,.47.47,0,0,1,7,20.74ZM0,6H15.48L13.37,22.05a2.15,2.15,0,0,1-1.33.72,18.65,18.65,0,0,1-4.13.48,17.87,17.87,0,0,1-4.13-.46A4.26,4.26,0,0,1,2.08,22Z"/>
  <path class="cls-2" d="M6.49,2.27H9a1.73,1.73,0,0,0-.4-.8,1.75,1.75,0,0,0-.86-.28A1.27,1.27,0,0,0,7,1.41a2.35,2.35,0,0,0-.5.86M1,3.27a27.23,27.23,0,0,1,4.33-.8A3.69,3.69,0,0,1,5.89.61,2.26,2.26,0,0,1,7.62,0,2.61,2.61,0,0,1,9.44.59a3.71,3.71,0,0,1,.79,1.81,29.83,29.83,0,0,1,4.43.92c.87.33.83.71.79,1.08H0C0,4,.08,3.59,1,3.27Z"/>
</svg>