<?xml version="1.0" encoding="utf-8"?>
<svg version="1.1" id="Layer_1" xmlns="http://www.w3.org/2000/svg" xmlns:xlink="http://www.w3.org/1999/xlink" x="0px" y="0px"
	 viewBox="0 0 8.03 8.03" style="enable-background:new 0 0 8.03 8.03;" xml:space="preserve">
<style type="text/css">
	.st0{fill:#D94D4D;}
</style>
<path class="st0" d="M5.25,4.01c0.61,0.61,1.22,1.22,1.83,1.82C7.34,6.1,7.6,6.37,7.87,6.63c0.22,0.22,0.22,0.47,0,0.69
	C7.7,7.49,7.52,7.65,7.36,7.83c-0.23,0.25-0.51,0.25-0.76,0C5.77,7,4.93,6.17,4.1,5.33c-0.03-0.03-0.05-0.05-0.09-0.1
	C3.99,5.27,3.97,5.3,3.94,5.32C3.1,6.17,2.26,7.01,1.41,7.86c-0.23,0.23-0.48,0.23-0.71,0C0.52,7.68,0.34,7.5,0.16,7.31
	c-0.21-0.22-0.21-0.46,0-0.68c0.85-0.85,1.7-1.7,2.55-2.55c0.05-0.05,0.06-0.08,0-0.13C1.87,3.1,1.02,2.25,0.17,1.41
	c-0.23-0.23-0.23-0.48,0-0.71c0.18-0.18,0.35-0.35,0.53-0.53c0.22-0.22,0.48-0.21,0.69,0c0.85,0.85,1.7,1.7,2.55,2.56
	c0.06,0.06,0.08,0.04,0.13-0.01c0.85-0.85,1.7-1.7,2.54-2.54c0.12-0.12,0.26-0.18,0.43-0.16c0.11,0.01,0.19,0.08,0.27,0.15
	C7.51,0.34,7.69,0.52,7.87,0.7c0.22,0.22,0.22,0.49,0,0.71c-0.75,0.75-1.5,1.5-2.25,2.25C5.5,3.77,5.38,3.89,5.25,4.01"/>
</svg>
